<?xml version="1.0" encoding="UTF-8" standalone="no"?>
<!DOCTYPE svg PUBLIC "-//W3C//DTD SVG 1.1//EN" "http://www.w3.org/Graphics/SVG/1.1/DTD/svg11.dtd">
<svg width="100%" height="100%" viewBox="0 0 41 46" version="1.1" xmlns="http://www.w3.org/2000/svg" xmlns:xlink="http://www.w3.org/1999/xlink" xml:space="preserve" xmlns:serif="http://www.serif.com/" style="fill-rule:evenodd;clip-rule:evenodd;stroke-linejoin:round;stroke-miterlimit:2;">
    <g class="refresh-spin-target">
        <g transform="matrix(1,0,0,1,-732.503291,-50.801832)">
            <g transform="matrix(0.741818,0,0,0.741135,186.525109,22.72105)">
                <path d="M766.636,44.179L765.072,57.803C764.55,57.743 764.025,57.713 763.5,57.713C755.891,57.713 749.713,63.891 749.713,71.5C749.713,79.109 755.891,85.287 763.5,85.287C771.114,85.287 777.287,79.114 777.287,71.5L791,71.5C791,86.688 778.688,99 763.5,99C748.322,99 736,86.678 736,71.5C736,56.322 748.322,44 763.5,44C764.548,44 765.595,44.06 766.636,44.179Z" style="fill:rgb(63,38,16);"/>
            </g>
            <g transform="matrix(0,0.806741,-0.758794,0,792.360589,-573.615377)">
                <path d="M786,33L798,52L774,52L786,33Z" style="fill:rgb(63,38,16);"/>
            </g>
        </g>
    </g>
</svg>
