<?xml version="1.0" encoding="UTF-8" standalone="no"?>
<!DOCTYPE svg PUBLIC "-//W3C//DTD SVG 1.1//EN" "http://www.w3.org/Graphics/SVG/1.1/DTD/svg11.dtd">
<svg width="100%" height="100%" viewBox="0 0 2048 1536" version="1.1" xmlns="http://www.w3.org/2000/svg" xmlns:xlink="http://www.w3.org/1999/xlink" xml:space="preserve" xmlns:serif="http://www.serif.com/" style="fill-rule:evenodd;clip-rule:evenodd;stroke-linejoin:round;stroke-miterlimit:2;">
    <g id="contstruction" transform="matrix(1.21978,0,0,1.21978,-255.398,-293.205)">
        <g transform="matrix(0.819823,0,0,0.819823,209.381,240.377)">
            <path d="M1045.63,1387.67L1043.45,1482.26C1043.45,1494.52 1033.5,1504.48 1021.24,1504.48C1008.98,1504.48 999.026,1494.52 999.026,1482.26L997.367,1410.07C1003.42,1406.87 1009.56,1403.83 1015.74,1400.9C1025.59,1396.25 1035.58,1391.87 1045.63,1387.67ZM1068.85,1378.21C1070.53,1377.55 1072.2,1376.89 1073.88,1376.24L1074.87,1377C1116.74,1409.38 1149.34,1449.82 1149.53,1503.79L1149.53,1504.43C1149.52,1455.81 1115.17,1421.88 1068.46,1395.07L1068.85,1378.21ZM1005.8,1378.62L1004.04,1379.46L1002.82,1380.04L1001.36,1380.74L1000.62,1381.1C999.854,1381.47 999.094,1381.84 998.336,1382.21L997.454,1382.64C939.425,1411.25 893.201,1447.78 892.956,1503.99L892.955,1504.43C892.867,1437.96 941.895,1391.97 997.04,1356.29L998.217,1355.53C999.362,1354.79 1000.51,1354.06 1001.66,1353.33L1002.67,1352.7C1003.23,1352.35 1003.78,1352 1004.34,1351.65L1005.7,1350.8C1006.78,1350.12 1007.86,1349.46 1008.95,1348.79L1010.79,1347.67L1011.93,1346.97C1012.38,1346.7 1012.83,1346.42 1013.29,1346.15C1012.85,1346.41 1012.42,1346.67 1011.99,1346.93L1013.3,1346.14C1014.3,1345.54 1015.29,1344.94 1016.28,1344.35L1018.24,1343.19L1019.43,1342.48C1019.86,1342.23 1020.29,1341.97 1020.73,1341.72C1020.3,1341.97 1019.87,1342.22 1019.45,1342.47C1020.39,1341.91 1021.34,1341.35 1022.29,1340.8L1023.6,1340.03L1025.57,1338.89L1027.65,1337.68L1029.78,1336.46L1032.32,1335.01C1033.7,1334.23 1035.07,1333.45 1036.45,1332.67L1036.14,1332.85L1036.48,1332.65C1094.82,1299.75 1148.74,1275.54 1148.69,1248.31C1148.64,1224.09 1118.39,1201.6 1073.43,1179.02L1073.87,1159.57L1073.87,1159.57C1076.56,1158.47 1079.24,1157.37 1081.92,1156.28C1099.26,1149.21 1116.6,1142.17 1133.89,1135C1136.89,1133.75 1139.89,1132.51 1142.88,1131.25L1144.05,1132.03C1193.29,1165.03 1227.9,1202.87 1227.78,1248.61C1227.64,1299.23 1133.46,1325.43 1045.04,1361.52L1042.91,1362.39L1040.78,1363.27C1036.9,1364.87 1033.03,1366.49 1029.18,1368.14L1029.31,1368.08L1027.45,1368.88L1025.52,1369.71L1023.56,1370.57L1022.7,1370.94C1020.38,1371.96 1018.08,1372.98 1015.78,1374.02L1015.28,1374.25L1015.56,1374.12L1013.99,1374.83L1013.46,1375.07L1013.66,1374.98L1012.14,1375.67L1011.69,1375.88L1011.77,1375.84L1010.14,1376.59L1010,1376.66C1008.59,1377.31 1007.19,1377.96 1005.8,1378.62ZM997.454,1382.64L997.387,1382.68L997.658,1382.54L997.454,1382.64ZM1000.96,1380.93L1000.79,1381.02L1001.34,1380.75L1000.96,1380.93ZM1002.82,1380.04L1002.64,1380.12L1002.83,1380.03L1002.82,1380.04ZM1004.04,1379.46L1003.98,1379.48L1004.12,1379.42L1004.04,1379.46ZM1005.8,1378.62L1005.42,1378.8L1005.9,1378.58L1005.8,1378.62ZM1012.14,1375.67L1011.94,1375.77L1012.14,1375.67ZM1013.99,1374.83L1013.83,1374.9L1013.99,1374.83ZM1015.79,1374.02L1015.72,1374.05L1015.79,1374.02ZM1023.56,1370.57L1023.41,1370.63L1023.59,1370.56L1023.56,1370.57ZM1025.52,1369.71L1025.33,1369.8L1025.56,1369.7L1025.52,1369.71ZM1027.45,1368.88L1027.26,1368.96L1027.48,1368.87L1027.45,1368.88ZM1042.91,1362.39L1042.77,1362.45L1042.94,1362.38L1042.91,1362.39ZM1045.04,1361.52L1044.72,1361.65L1045.08,1361.5L1045.04,1361.52ZM1008.95,1348.79L1008.88,1348.83C1009.29,1348.58 1009.71,1348.32 1010.13,1348.07C1009.73,1348.31 1009.34,1348.55 1008.95,1348.79ZM1082.5,784.023C1089.52,781.171 1096.54,778.329 1103.56,775.49C1117.06,770.035 1130.58,764.593 1144.08,759.139C1162.96,751.509 1181.83,743.85 1200.65,736.07C1289.37,791.773 1353.77,856.071 1353.77,935.227C1353.77,1027.2 1181.88,1088.43 1048.25,1143.73L1051.26,1142.48L1051.26,1142.48C1044.04,1145.46 1036.83,1148.47 1029.63,1151.51L1027.15,1152.56C1017.19,1156.79 1007.52,1160.99 998.251,1165.17L998.514,1165.05L995.959,1166.21L993.43,1167.36L993.683,1167.25L992.551,1167.77C934.947,1194.2 893.85,1220.08 893.794,1248.31C893.751,1270.13 928.374,1290.01 972.154,1313.99L972.823,1343.13C970.17,1344.95 967.534,1346.79 964.918,1348.66C887.385,1318.66 814.824,1293.04 814.703,1248.61C814.272,1090.8 1227.37,1026.97 1227.78,932.021C1227.96,888.848 1167.92,849.588 1081.91,809.671L1082.5,784.023L1082.5,784.023ZM1017.41,1343.68L1016.3,1344.34L1017.63,1343.55L1017.41,1343.68ZM1027.65,1337.68L1027.43,1337.81L1027.95,1337.51L1027.65,1337.68ZM996.93,1327.58C996.186,1328.04 995.453,1328.49 995.453,1328.49L992.421,1194.75C995.118,1193.47 997.824,1192.2 1000.53,1190.95C1009.63,1186.74 1018.8,1182.69 1028.01,1178.73C1035.53,1175.48 1043.08,1172.3 1050.65,1169.15L1047.67,1298.57C1041.2,1302.11 1034.74,1305.66 1028.3,1309.27C1017.73,1315.18 1007.23,1321.24 996.897,1327.56L996.93,1327.58ZM1000.56,1164.13L1000.52,1164.15L1000.61,1164.11L1000.56,1164.13ZM1031.88,1150.56L1030.64,1151.08L1032.44,1150.32L1031.88,1150.56ZM1034.38,1149.51L1033.57,1149.85L1035.26,1149.13L1034.38,1149.51ZM1036.89,1148.45L1036.39,1148.66L1038.24,1147.89L1036.89,1148.45ZM1044.49,1145.29L1042.08,1146.29L1044.95,1145.09L1044.49,1145.29ZM1047.04,1144.23L1045.39,1144.91L1048.09,1143.79L1047.04,1144.23ZM1052.19,629.21C1055.84,627.675 1059.5,626.158 1063.16,624.655L1063.16,624.656L1062.99,624.723C1226.47,557.607 1436.32,506.15 1436.32,424.082C1436.32,359.587 1367.46,367 1345.74,343.515C1309.24,304.051 1306.57,262.383 1306.57,262.383C1306.57,262.383 1558.31,172.376 1556.61,424.805C1555.55,580.517 1273.25,679.487 1057.23,768.023L1053.14,769.701L1049.14,771.347L1049.2,771.321L1048.71,771.525L1045.3,772.931L1041.42,774.535L1039.72,775.242L1037.53,776.15L1035.61,776.948L1036.58,776.545L1033.4,777.869L1031.99,778.46L1028.37,779.973L1028.58,779.882L1024.62,781.546C905.889,831.466 814.472,878.767 814.703,932.021C814.871,970.875 884.139,1004.52 965.895,1041.52L966.449,1065.64L966.449,1065.64C962.024,1067.83 957.613,1070.05 953.217,1072.3C941.042,1078.52 928.983,1084.98 917.128,1091.8C910.408,1095.66 903.752,1099.64 897.187,1103.77C789.795,1058.21 688.715,1005.75 688.715,935.227C688.715,816.871 832.691,731.733 986.665,658.877L989.992,657.305L992.383,656.178C993.806,655.509 995.229,654.841 996.653,654.173L1000.13,652.546L1002.07,651.641C1002.07,651.641 1003.19,651.119 1003.19,651.119L1000.83,652.219L1003.1,651.163L1004.87,650.339L1007.89,648.933L1011.77,647.134C1014.36,645.936 1016.95,644.742 1019.53,643.55C1021,642.875 1022.48,642.201 1023.96,641.53L1025.43,640.86L1027.43,639.959L1029.43,639.063L1031.43,638.172L1033.44,637.285L1035.45,636.402L1036.91,635.761L1035.91,636.199L1037.45,635.523L1039.45,634.655C1040.8,634.069 1042.15,633.484 1043.51,632.9L1045.68,631.969L1047.86,631.041L1050.04,630.117L1051.72,629.41L1052.18,629.214L1052.19,629.21ZM991.138,1080.74L990.102,1081.24L991.515,1080.56L991.138,1080.74ZM992.9,1079.89L992.521,1080.07L993.511,1079.6L992.9,1079.89ZM1052.39,796.361C1055.46,795.091 1059.14,793.575 1059.14,793.575L1053.96,1024.96C1033.2,1034.32 1012.42,1043.67 991.827,1053.39L989.142,1054.64L983.945,825.798C996.695,820.038 1009.52,814.456 1022.4,808.975C1032.38,804.721 1042.4,800.53 1052.43,796.38L1052.39,796.361ZM1045.3,772.931L1044.65,773.201L1045.3,772.931ZM1053.14,769.701L1052.79,769.847L1053.17,769.689L1053.14,769.701ZM956.812,646.146C937.683,655.392 918.676,664.9 899.881,674.816C882.395,684.041 865.092,693.621 848.09,703.714C845.267,705.391 842.451,707.081 839.645,708.787C660.496,634.133 486.7,546.917 485.875,424.805C484.168,172.376 735.909,262.383 735.909,262.383C735.909,262.383 733.237,304.051 696.741,343.515C675.022,367 606.163,359.587 606.163,424.082C606.163,502.283 796.703,552.69 956.104,615.339L956.812,646.146ZM979.569,635.285L967.902,127.436L1074.58,127.436L1063.77,598.079C1058.69,600.121 1053.62,602.189 1048.57,604.285C1039.16,608.188 1029.79,612.201 1020.48,616.346C1017.76,617.554 1015.06,618.774 1012.35,620.006C1008.08,621.953 1003.83,623.926 999.569,625.9C996.852,627.159 991.464,629.706 991.464,629.706C984.708,632.858 979.569,635.285 979.569,635.285ZM1047.85,631.048L1047.79,631.07L1048.16,630.915L1047.85,631.048ZM1050.01,630.129L1049.91,630.171L1050.43,629.953L1050.01,630.129ZM1052.19,629.21L1052.04,629.273L1052.63,629.026L1052.19,629.21ZM1054.37,628.297L1054.19,628.374L1054.8,628.119L1054.37,628.297ZM1056.56,627.384L1056.35,627.472L1056.94,627.225L1056.56,627.384ZM1058.75,626.473L1058.53,626.566L1059.07,626.341L1058.75,626.473ZM1060.95,625.564L1060.74,625.651L1061.19,625.465L1060.95,625.564Z"/>
        </g>
        <g transform="matrix(1.41484,0,0,1.41484,-434.174,-40.1839)">
            <circle cx="1046.62" cy="313.862" r="83.15"/>
        </g>
        <path d="M987.092,527.999L991.565,722.737L990.701,722.402C985.583,720.43 980.459,718.476 975.328,716.54C913.824,649.538 821.918,604.594 738.034,564.402C738.193,564.3 738.353,564.198 738.513,564.098C740.821,562.654 743.259,561.426 745.741,560.311C748.884,558.9 752.105,557.674 755.339,556.489C755.834,556.309 756.329,556.129 756.825,555.95C758.874,555.214 760.928,554.49 762.978,553.756C764.308,553.28 765.637,552.799 766.961,552.307C768.047,551.904 769.13,551.494 770.208,551.072C774.048,549.569 777.839,547.923 781.47,545.965C784.913,544.108 788.211,541.966 791.206,539.445C792.054,538.732 792.877,537.989 793.671,537.216C794.08,536.818 794.479,536.411 794.873,535.999C795.003,535.862 795.132,535.724 795.261,535.586C796.713,534.01 798.139,532.409 799.527,530.776C802.512,527.266 805.338,523.62 807.99,519.852C816.011,508.454 822.447,495.923 826.909,482.715C828.523,477.935 829.882,473.065 830.929,468.129C831.324,466.265 831.674,464.392 831.969,462.51C832.237,460.807 832.459,459.097 832.609,457.379C832.621,457.231 832.633,457.084 832.643,456.936C832.591,455.489 832.695,454.029 832.487,452.597C832.066,449.717 831.022,446.962 829.427,444.527C828.635,443.316 827.704,442.186 826.669,441.175C825.634,440.164 824.391,439.39 823.252,438.497L819.338,436.62L819.151,436.553L818.891,436.463C816.778,435.738 814.647,435.065 812.507,434.421C810.003,433.667 807.487,432.956 804.961,432.28C798.424,430.531 791.825,429.017 785.182,427.728C778.746,426.479 772.268,425.442 765.76,424.638C760.67,424.009 755.562,423.523 750.444,423.194C746.491,422.939 742.532,422.779 738.571,422.722C724.97,422.524 711.319,423.529 697.965,426.176C691.603,427.437 685.313,429.072 679.16,431.126C672.924,433.208 666.83,435.721 660.963,438.689C657.275,440.554 653.678,442.599 650.194,444.821C645.187,448.014 640.416,451.575 635.938,455.475C629.697,460.911 624.037,467.005 619.045,473.606C614.952,479.018 611.308,484.766 608.109,490.75C605.602,495.442 603.368,500.278 601.389,505.216C576.415,499.908 548.223,487.588 513.682,468.903C499.387,461.17 588.584,432.051 586.424,430.837C585.041,430.059 491.704,455.057 475.673,449.727C468.333,447.287 443.308,433.216 434.382,426.752C417.748,414.705 535.523,395.924 534.33,395.227C529.9,392.638 415.905,412.724 398.82,403.879C391.343,400.007 379.698,390.169 372.338,383.583C354.955,368.028 493.022,360.241 490.77,358.468C484.356,353.418 356.594,369.369 344.941,359.97C339.163,355.31 322.609,340.064 318.803,336.397C301.817,320.034 451.766,318.65 450.155,317.224C447.125,314.543 306.232,321.392 291.199,306.065C284.059,298.786 257.588,270.519 270.578,271.349C349.585,276.393 563.584,284.483 701.011,266.778C765.078,258.524 826.976,343.492 908.981,402.282C908.903,409.096 909.326,415.916 910.25,422.667C911.16,429.321 912.56,435.908 914.437,442.356C916.515,449.496 919.177,456.465 922.386,463.173C925.913,470.544 930.099,477.599 934.875,484.229C939.701,490.927 945.129,497.192 951.07,502.925C957.314,508.95 964.125,514.386 971.386,519.137C976.42,522.43 981.67,525.392 987.092,527.999ZM776.793,525.349C774.805,526.814 772.656,528.052 770.447,529.156C772.76,527.998 774.895,526.746 776.793,525.349ZM1031.82,774.178L1031.56,774.302L1030.94,774.591L1031.82,774.178Z"/>
        <g transform="matrix(-1,0,0,1,2093.24,0)">
            <path d="M987.092,527.999L991.565,722.737L990.701,722.402C985.583,720.43 980.459,718.476 975.328,716.54C913.824,649.538 821.918,604.594 738.034,564.402C738.193,564.3 738.353,564.198 738.513,564.098C740.821,562.654 743.259,561.426 745.741,560.311C748.884,558.9 752.105,557.674 755.339,556.489C755.834,556.309 756.329,556.129 756.825,555.95C758.874,555.214 760.928,554.49 762.978,553.756C764.308,553.28 765.637,552.799 766.961,552.307C768.047,551.904 769.13,551.494 770.208,551.072C774.048,549.569 777.839,547.923 781.47,545.965C784.913,544.108 788.211,541.966 791.206,539.445C792.054,538.732 792.877,537.989 793.671,537.216C794.08,536.818 794.479,536.411 794.873,535.999C795.003,535.862 795.132,535.724 795.261,535.586C796.713,534.01 798.139,532.409 799.527,530.776C802.512,527.266 805.338,523.62 807.99,519.852C816.011,508.454 822.447,495.923 826.909,482.715C828.523,477.935 829.882,473.065 830.929,468.129C831.324,466.265 831.674,464.392 831.969,462.51C832.237,460.807 832.459,459.097 832.609,457.379C832.621,457.231 832.633,457.084 832.643,456.936C832.591,455.489 832.695,454.029 832.487,452.597C832.066,449.717 831.022,446.962 829.427,444.527C828.635,443.316 827.704,442.186 826.669,441.175C825.634,440.164 824.391,439.39 823.252,438.497L819.338,436.62L819.151,436.553L818.891,436.463C816.778,435.738 814.647,435.065 812.507,434.421C810.003,433.667 807.487,432.956 804.961,432.28C798.424,430.531 791.825,429.017 785.182,427.728C778.746,426.479 772.268,425.442 765.76,424.638C760.67,424.009 755.562,423.523 750.444,423.194C746.491,422.939 742.532,422.779 738.571,422.722C724.97,422.524 711.319,423.529 697.965,426.176C691.603,427.437 685.313,429.072 679.16,431.126C672.924,433.208 666.83,435.721 660.963,438.689C657.275,440.554 653.678,442.599 650.194,444.821C645.187,448.014 640.416,451.575 635.938,455.475C629.697,460.911 624.037,467.005 619.045,473.606C614.952,479.018 611.308,484.766 608.109,490.75C605.602,495.442 603.368,500.278 601.389,505.216C576.415,499.908 548.223,487.588 513.682,468.903C499.387,461.17 588.584,432.051 586.424,430.837C585.041,430.059 491.704,455.057 475.673,449.727C468.333,447.287 443.308,433.216 434.382,426.752C417.748,414.705 535.523,395.924 534.33,395.227C529.9,392.638 415.905,412.724 398.82,403.879C391.343,400.007 379.698,390.169 372.338,383.583C354.955,368.028 493.022,360.241 490.77,358.468C484.356,353.418 356.594,369.369 344.941,359.97C339.163,355.31 322.609,340.064 318.803,336.397C301.817,320.034 451.766,318.65 450.155,317.224C447.125,314.543 306.232,321.392 291.199,306.065C284.059,298.786 257.588,270.519 270.578,271.349C349.585,276.393 563.584,284.483 701.011,266.778C765.078,258.524 826.976,343.492 908.981,402.282C908.903,409.096 909.326,415.916 910.25,422.667C911.16,429.321 912.56,435.908 914.437,442.356C916.515,449.496 919.177,456.465 922.386,463.173C925.913,470.544 930.099,477.599 934.875,484.229C939.701,490.927 945.129,497.192 951.07,502.925C957.314,508.95 964.125,514.386 971.386,519.137C976.42,522.43 981.67,525.392 987.092,527.999ZM1031.82,774.178L1031.56,774.302L1030.94,774.591L1031.82,774.178ZM776.793,525.349C774.805,526.814 772.656,528.052 770.447,529.156C772.76,527.998 774.895,526.746 776.793,525.349Z"/>
        </g>
    </g>
</svg>
